<?xml version="1.0" encoding="UTF-8" standalone="no"?>
<!DOCTYPE svg PUBLIC "-//W3C//DTD SVG 1.1//EN" "http://www.w3.org/Graphics/SVG/1.1/DTD/svg11.dtd">
<svg version="1.0" xmlns="http://www.w3.org/2000/svg"
 width="530.000000pt" height="458.000000pt" viewBox="0 0 530.000000 458.000000"
 preserveAspectRatio="xMidYMid meet">
<g transform="translate(0.000000,458.000000) scale(0.100000,-0.100000)"
fill="#000000" stroke="none">
<path d="M961 4575 c-1 -6 11 -28 25 -49 36 -53 602 -806 625 -832 24 -25 24
-40 2 -49 -20 -7 -172 -56 -268 -85 -33 -10 -229 -71 -435 -135 -206 -64 -403
-125 -437 -135 -69 -20 -83 -27 -83 -40 0 -4 89 -53 198 -109 633 -321 579
-287 723 -451 41 -47 97 -110 125 -140 29 -30 65 -71 80 -90 16 -19 31 -37 34
-40 3 -3 39 -43 80 -90 41 -47 77 -87 80 -90 3 -3 34 -39 70 -80 36 -41 79
-91 97 -110 17 -19 41 -47 53 -63 l21 -27 471 0 470 0 517 -389 c284 -213 642
-483 795 -599 154 -116 283 -209 287 -207 3 3 12 84 18 182 7 98 16 231 22
296 5 65 6 124 2 131 -5 7 -131 122 -281 255 -150 133 -277 252 -283 264 -5
12 -55 148 -112 302 l-102 279 -375 349 c-443 411 -546 502 -694 612 -215 159
-826 568 -1366 912 -107 69 -225 145 -262 169 -37 24 -72 44 -77 44 -5 0 -12
6 -14 13 -3 6 -6 7 -6 2z m1743 -1577 c108 -104 292 -274 443 -412 23 -21 40
-43 37 -47 -3 -5 -39 -9 -79 -9 -78 0 -71 -2 -212 76 -27 15 -80 44 -120 65
-146 78 -138 72 -137 115 1 21 6 68 12 104 19 121 27 136 56 108z"/>
<path d="M989 2706 c-2 -3 -40 -9 -84 -15 -168 -22 -728 -104 -832 -122 -35
-6 -63 -15 -63 -19 0 -4 116 -85 257 -180 616 -415 1037 -699 1153 -779 81
-55 214 -165 375 -311 138 -124 352 -315 475 -425 123 -110 249 -224 280 -252
31 -29 69 -62 83 -73 l26 -21 238 80 c131 43 337 111 458 151 121 40 227 76
235 82 21 13 -114 5 -538 -33 l-132 -12 -93 72 c-186 143 -743 579 -918 717
-115 91 -120 97 -289 331 -95 131 -190 261 -210 288 -66 90 -223 309 -300 418
-54 77 -81 107 -96 107 -11 0 -23 -2 -25 -4z"/>
<path d="M3355 1264 c11 -17 54 -74 95 -128 351 -458 382 -501 421 -585 21
-47 49 -106 62 -131 l22 -45 65 2 c58 1 265 10 650 29 l125 6 115 -97 c122
-102 170 -144 287 -243 40 -34 74 -62 77 -62 15 0 2 37 -55 156 -33 71 -77
165 -97 208 -20 44 -53 112 -72 150 l-35 71 -125 11 c-69 6 -215 17 -325 23
-110 7 -248 17 -307 21 l-107 9 -138 109 c-733 575 -687 541 -658 496z"/>
</g>
</svg>
