<?xml version="1.0" standalone="no"?>
<!DOCTYPE svg PUBLIC "-//W3C//DTD SVG 1.0//EN" "http://www.w3.org/TR/2001/REC-SVG-20010904/DTD/svg10.dtd">
<svg xmlns="http://www.w3.org/2000/svg" xmlns:xlink="http://www.w3.org/1999/xlink" id="body_1" width="105" height="90">

<g transform="matrix(0.1953125 0 0 0.1953125 0 0)">
	<g transform="matrix(0.1 0 -0 -0.1 0 458)">
        <path d="M961 4575C 960 4569 972 4547 986 4526C 1022 4473 1588 3720 1611 3694C 1635 3669 1635 3654 1613 3645C 1593 3638 1441 3589 1345 3560C 1312 3550 1116 3489 910 3425C 704 3361 507 3300 473 3290C 404 3270 390 3263 390 3250C 390 3246 479 3197 588 3141C 1221 2820 1167 2854 1311 2690C 1352 2643 1408 2580 1436 2550C 1465 2520 1501 2479 1516 2460C 1532 2441 1547 2423 1550 2420C 1553 2417 1589 2377 1630 2330C 1671 2283 1707 2243 1710 2240C 1713 2237 1744 2201 1780 2160C 1816 2119 1859 2069 1877 2050C 1894 2031 1918 2003 1930 1987L1930 1987L1951 1960L2422 1960L2892 1960L3409 1571C 3693 1358 4051 1088 4204 972C 4358 856 4487 763 4491 765C 4494 768 4503 849 4509 947C 4516 1045 4525 1178 4531 1243C 4536 1308 4537 1367 4533 1374C 4528 1381 4402 1496 4252 1629C 4102 1762 3975 1881 3969 1893C 3964 1905 3914 2041 3857 2195L3857 2195L3755 2474L3380 2823C 2937 3234 2834 3325 2686 3435C 2471 3594 1860 4003 1320 4347C 1213 4416 1095 4492 1058 4516C 1021 4540 986 4560 981 4560C 976 4560 969 4566 967 4573C 964 4579 961 4580 961 4575zM2704 2998C 2812 2894 2996 2724 3147 2586C 3170 2565 3187 2543 3184 2539C 3181 2534 3145 2530 3105 2530C 3027 2530 3034 2528 2893 2606C 2866 2621 2813 2650 2773 2671C 2627 2749 2635 2743 2636 2786C 2637 2807 2642 2854 2648 2890C 2667 3011 2675 3026 2704 2998z" stroke="none" fill="#000000" fill-rule="nonzero" />
        <path d="M989 2706C 987 2703 949 2697 905 2691C 737 2669 177 2587 73 2569C 38 2563 10 2554 10 2550C 10 2546 126 2465 267 2370C 883 1955 1304 1671 1420 1591C 1501 1536 1634 1426 1795 1280C 1933 1156 2147 965 2270 855C 2393 745 2519 631 2550 603C 2581 574 2619 541 2633 530L2633 530L2659 509L2897 589C 3028 632 3234 700 3355 740C 3476 780 3582 816 3590 822C 3611 835 3476 827 3052 789L3052 789L2920 777L2827 849C 2641 992 2084 1428 1909 1566C 1794 1657 1789 1663 1620 1897C 1525 2028 1430 2158 1410 2185C 1344 2275 1187 2494 1110 2603C 1056 2680 1029 2710 1014 2710C 1003 2710 991 2708 989 2706z" stroke="none" fill="#000000" fill-rule="nonzero" />
        <path d="M3355 1264C 3366 1247 3409 1190 3450 1136C 3801 678 3832 635 3871 551C 3892 504 3920 445 3933 420L3933 420L3955 375L4020 377C 4078 378 4285 387 4670 406L4670 406L4795 412L4910 315C 5032 213 5080 171 5197 72C 5237 38 5271 10 5274 10C 5289 10 5276 47 5219 166C 5186 237 5142 331 5122 374C 5102 418 5069 486 5050 524L5050 524L5015 595L4890 606C 4821 612 4675 623 4565 629C 4455 636 4317 646 4258 650L4258 650L4151 659L4013 768C 3280 1343 3326 1309 3355 1264z" stroke="none" fill="#000000" fill-rule="nonzero" />
	</g>
</g>
</svg>